<?xml version="1.0" encoding="UTF-8"?>
<svg xmlns="http://www.w3.org/2000/svg" xmlns:xlink="http://www.w3.org/1999/xlink" width="24px" height="24px" viewBox="0 0 24 24" version="1.1">
<g id="surface1">
<path style=" stroke:none;fill-rule:nonzero;fill:rgb(0%,0%,0%);fill-opacity:1;" d="M 7.90625 3.261719 C 6.941406 3.460938 5.957031 3.816406 4.917969 4.339844 C 4.210938 4.691406 3.378906 5.1875 3.207031 5.363281 C 2.886719 5.6875 2.1875 7.097656 1.726562 8.367188 C 0.894531 10.621094 0.242188 13.808594 0.0195312 16.695312 C -0.0234375 17.269531 0.015625 17.347656 0.578125 17.890625 C 2.414062 19.660156 4.78125 20.761719 6.914062 20.839844 C 7.503906 20.863281 7.585938 20.859375 7.710938 20.773438 C 7.789062 20.726562 8.28125 20.132812 8.8125 19.460938 L 9.773438 18.234375 L 10.21875 18.273438 C 10.785156 18.3125 13.195312 18.3125 13.78125 18.273438 L 14.226562 18.238281 L 15.1875 19.460938 C 15.71875 20.136719 16.214844 20.722656 16.289062 20.773438 C 16.5625 20.9375 17.765625 20.855469 18.734375 20.601562 C 20.359375 20.175781 22.09375 19.171875 23.421875 17.890625 C 24.023438 17.3125 24.03125 17.296875 23.957031 16.449219 C 23.652344 12.929688 22.835938 9.46875 21.746094 7.054688 C 21.414062 6.324219 20.972656 5.546875 20.792969 5.363281 C 20.507812 5.082031 19.078125 4.292969 18.121094 3.894531 C 16.671875 3.289062 15.089844 2.984375 14.679688 3.234375 C 14.5 3.347656 14.503906 3.34375 13.828125 4.636719 L 13.289062 5.671875 L 10.710938 5.671875 L 10.171875 4.636719 C 9.496094 3.34375 9.5 3.347656 9.320312 3.234375 C 9.109375 3.109375 8.617188 3.117188 7.90625 3.261719 Z M 8.878906 5.199219 C 9.046875 5.53125 9.1875 5.816406 9.1875 5.828125 C 9.1875 5.839844 8.980469 5.882812 8.734375 5.929688 C 7.054688 6.21875 5.054688 6.894531 4.691406 7.285156 C 4.601562 7.378906 4.570312 7.472656 4.5625 7.679688 C 4.539062 8.023438 4.648438 8.21875 4.949219 8.351562 C 5.207031 8.464844 5.347656 8.445312 5.796875 8.242188 C 6.9375 7.726562 8.554688 7.320312 10.210938 7.148438 C 11.066406 7.054688 12.933594 7.058594 13.808594 7.148438 C 15.460938 7.320312 17.046875 7.714844 18.203125 8.242188 C 18.652344 8.445312 18.792969 8.464844 19.050781 8.351562 C 19.351562 8.21875 19.460938 8.023438 19.4375 7.679688 C 19.414062 7.25 19.25 7.125 18.214844 6.726562 C 17.335938 6.390625 16.273438 6.097656 15.28125 5.929688 C 15.039062 5.886719 14.832031 5.84375 14.820312 5.835938 C 14.8125 5.828125 14.945312 5.546875 15.117188 5.207031 C 15.375 4.707031 15.445312 4.59375 15.53125 4.59375 C 15.703125 4.59375 16.542969 4.8125 17.0625 4.992188 C 17.617188 5.183594 18.867188 5.785156 19.425781 6.125 C 19.753906 6.328125 19.8125 6.390625 19.984375 6.679688 C 21.15625 8.722656 22.117188 12.308594 22.519531 16.148438 L 22.585938 16.757812 L 22.363281 16.964844 C 20.910156 18.332031 18.71875 19.386719 17.265625 19.421875 L 16.949219 19.429688 L 16.398438 18.726562 C 16.09375 18.34375 15.84375 18.007812 15.84375 17.992188 C 15.84375 17.976562 15.964844 17.933594 16.117188 17.90625 C 16.625 17.796875 17.652344 17.488281 18.210938 17.273438 C 19.28125 16.859375 20.421875 16.226562 20.644531 15.929688 C 20.769531 15.75 20.769531 15.375 20.644531 15.195312 C 20.339844 14.789062 20 14.765625 19.449219 15.109375 C 18.296875 15.824219 16.667969 16.40625 15.03125 16.6875 C 13.203125 16.996094 10.832031 17.007812 9.070312 16.707031 C 7.328125 16.410156 5.691406 15.828125 4.507812 15.078125 C 4.007812 14.765625 3.652344 14.796875 3.355469 15.195312 C 3.230469 15.375 3.230469 15.75 3.355469 15.929688 C 3.578125 16.226562 4.75 16.875 5.796875 17.277344 C 6.359375 17.492188 7.398438 17.804688 7.890625 17.90625 C 8.035156 17.933594 8.15625 17.976562 8.15625 17.992188 C 8.15625 18.007812 7.90625 18.34375 7.601562 18.726562 L 7.050781 19.429688 L 6.746094 19.425781 C 5.816406 19.402344 4.335938 18.875 3.214844 18.164062 C 2.71875 17.851562 2.328125 17.5625 1.828125 17.132812 C 1.460938 16.820312 1.453125 16.808594 1.453125 16.597656 C 1.453125 16.332031 1.609375 15.015625 1.734375 14.210938 C 2.207031 11.152344 3.03125 8.417969 3.980469 6.75 C 4.191406 6.375 4.226562 6.335938 4.574219 6.125 C 5.628906 5.484375 7.140625 4.851562 8.109375 4.648438 C 8.570312 4.550781 8.535156 4.527344 8.878906 5.199219 Z M 8.878906 5.199219 "/>
<path style=" stroke:none;fill-rule:nonzero;fill:rgb(0%,0%,0%);fill-opacity:1;" d="M 8.171875 9.582031 C 7.257812 9.800781 6.511719 10.574219 6.257812 11.554688 C 6.160156 11.933594 6.160156 12.648438 6.257812 13.03125 C 6.507812 13.996094 7.273438 14.792969 8.152344 15 C 8.480469 15.074219 9.191406 15.039062 9.46875 14.929688 C 9.824219 14.789062 10.3125 14.4375 10.53125 14.160156 C 10.820312 13.800781 11.042969 13.316406 11.136719 12.847656 C 11.511719 10.949219 9.894531 9.164062 8.171875 9.582031 Z M 9.09375 11.046875 C 9.886719 11.453125 10.027344 12.730469 9.347656 13.359375 C 9.097656 13.589844 8.972656 13.640625 8.667969 13.640625 C 8.058594 13.640625 7.578125 13.054688 7.585938 12.308594 C 7.585938 12.15625 7.609375 11.9375 7.636719 11.832031 C 7.707031 11.570312 7.945312 11.226562 8.136719 11.105469 C 8.488281 10.890625 8.75 10.875 9.09375 11.046875 Z M 9.09375 11.046875 "/>
<path style=" stroke:none;fill-rule:nonzero;fill:rgb(0%,0%,0%);fill-opacity:1;" d="M 14.792969 9.589844 C 13.457031 9.914062 12.578125 11.398438 12.863281 12.847656 C 13.015625 13.613281 13.425781 14.253906 14 14.640625 C 14.414062 14.910156 14.699219 15.007812 15.183594 15.039062 C 15.917969 15.078125 16.503906 14.851562 17.03125 14.304688 C 17.558594 13.753906 17.820312 13.082031 17.816406 12.28125 C 17.8125 11.46875 17.550781 10.808594 17.023438 10.273438 C 16.390625 9.640625 15.601562 9.394531 14.792969 9.589844 Z M 15.820312 11.082031 C 15.933594 11.148438 16.085938 11.300781 16.167969 11.421875 C 16.757812 12.3125 16.261719 13.640625 15.332031 13.640625 C 15.027344 13.640625 14.902344 13.589844 14.652344 13.359375 C 13.972656 12.730469 14.113281 11.464844 14.90625 11.046875 C 15.121094 10.9375 15.203125 10.917969 15.394531 10.941406 C 15.515625 10.953125 15.707031 11.019531 15.820312 11.082031 Z M 15.820312 11.082031 "/>
</g>
</svg>
